<mxfile host="app.diagrams.net" agent="Mozilla/5.0 (Windows NT 10.0; Win64; x64) AppleWebKit/537.36 (KHTML, like Gecko) Chrome/130.0.0.0 Safari/537.36" version="24.8.4">
  <diagram name="第 1 页" id="bKC5QmhDBSJt0FXYR_QA">
    <mxGraphModel dx="4406" dy="5330" grid="1" gridSize="10" guides="1" tooltips="1" connect="1" arrows="1" fold="1" page="1" pageScale="1" pageWidth="3300" pageHeight="4681" math="0" shadow="0">
      <root>
        <mxCell id="0" />
        <mxCell id="1" parent="0" />
        <mxCell id="_Jt70skvFzHEWjwzI6Lq-7" value="玩" style="whiteSpace=wrap;html=1;" parent="1" vertex="1">
          <mxGeometry x="-400" y="450" width="120" height="60" as="geometry" />
        </mxCell>
        <mxCell id="_Jt70skvFzHEWjwzI6Lq-33" style="edgeStyle=orthogonalEdgeStyle;rounded=0;orthogonalLoop=1;jettySize=auto;html=1;entryX=0.5;entryY=0;entryDx=0;entryDy=0;" parent="1" source="_Jt70skvFzHEWjwzI6Lq-32" target="_Jt70skvFzHEWjwzI6Lq-7" edge="1">
          <mxGeometry relative="1" as="geometry" />
        </mxCell>
        <mxCell id="_Jt70skvFzHEWjwzI6Lq-32" value="游戏" style="ellipse;whiteSpace=wrap;html=1;" parent="1" vertex="1">
          <mxGeometry x="-230" y="390" width="80" height="80" as="geometry" />
        </mxCell>
        <mxCell id="nXqNh91f3k578FwpFISp-6" style="edgeStyle=orthogonalEdgeStyle;rounded=0;orthogonalLoop=1;jettySize=auto;html=1;entryX=0;entryY=0.5;entryDx=0;entryDy=0;" edge="1" parent="1" source="nXqNh91f3k578FwpFISp-1" target="nXqNh91f3k578FwpFISp-2">
          <mxGeometry relative="1" as="geometry" />
        </mxCell>
        <mxCell id="nXqNh91f3k578FwpFISp-7" style="edgeStyle=orthogonalEdgeStyle;rounded=0;orthogonalLoop=1;jettySize=auto;html=1;entryX=0;entryY=0.5;entryDx=0;entryDy=0;" edge="1" parent="1" source="nXqNh91f3k578FwpFISp-1" target="nXqNh91f3k578FwpFISp-3">
          <mxGeometry relative="1" as="geometry" />
        </mxCell>
        <mxCell id="nXqNh91f3k578FwpFISp-8" style="edgeStyle=orthogonalEdgeStyle;rounded=0;orthogonalLoop=1;jettySize=auto;html=1;entryX=0;entryY=0.5;entryDx=0;entryDy=0;" edge="1" parent="1" source="nXqNh91f3k578FwpFISp-1" target="nXqNh91f3k578FwpFISp-4">
          <mxGeometry relative="1" as="geometry" />
        </mxCell>
        <mxCell id="nXqNh91f3k578FwpFISp-1" value="human" style="rounded=0;whiteSpace=wrap;html=1;" vertex="1" parent="1">
          <mxGeometry x="70" y="730" width="120" height="60" as="geometry" />
        </mxCell>
        <mxCell id="nXqNh91f3k578FwpFISp-10" value="" style="edgeStyle=orthogonalEdgeStyle;rounded=0;orthogonalLoop=1;jettySize=auto;html=1;entryX=0;entryY=0.5;entryDx=0;entryDy=0;" edge="1" parent="1" source="nXqNh91f3k578FwpFISp-2" target="nXqNh91f3k578FwpFISp-9">
          <mxGeometry relative="1" as="geometry" />
        </mxCell>
        <mxCell id="nXqNh91f3k578FwpFISp-29" style="edgeStyle=orthogonalEdgeStyle;rounded=0;orthogonalLoop=1;jettySize=auto;html=1;entryX=0;entryY=0.5;entryDx=0;entryDy=0;" edge="1" parent="1" source="nXqNh91f3k578FwpFISp-2" target="nXqNh91f3k578FwpFISp-28">
          <mxGeometry relative="1" as="geometry" />
        </mxCell>
        <mxCell id="nXqNh91f3k578FwpFISp-59" style="edgeStyle=orthogonalEdgeStyle;rounded=0;orthogonalLoop=1;jettySize=auto;html=1;entryX=0;entryY=0.5;entryDx=0;entryDy=0;" edge="1" parent="1" source="nXqNh91f3k578FwpFISp-2" target="nXqNh91f3k578FwpFISp-24">
          <mxGeometry relative="1" as="geometry" />
        </mxCell>
        <mxCell id="nXqNh91f3k578FwpFISp-60" style="edgeStyle=orthogonalEdgeStyle;rounded=0;orthogonalLoop=1;jettySize=auto;html=1;entryX=0;entryY=0.5;entryDx=0;entryDy=0;" edge="1" parent="1" source="nXqNh91f3k578FwpFISp-2" target="nXqNh91f3k578FwpFISp-23">
          <mxGeometry relative="1" as="geometry" />
        </mxCell>
        <mxCell id="nXqNh91f3k578FwpFISp-61" style="edgeStyle=orthogonalEdgeStyle;rounded=0;orthogonalLoop=1;jettySize=auto;html=1;entryX=0;entryY=0.5;entryDx=0;entryDy=0;" edge="1" parent="1" source="nXqNh91f3k578FwpFISp-2" target="nXqNh91f3k578FwpFISp-22">
          <mxGeometry relative="1" as="geometry" />
        </mxCell>
        <mxCell id="nXqNh91f3k578FwpFISp-2" value="safety" style="rounded=0;whiteSpace=wrap;html=1;" vertex="1" parent="1">
          <mxGeometry x="270" y="610" width="120" height="60" as="geometry" />
        </mxCell>
        <mxCell id="nXqNh91f3k578FwpFISp-3" value="happiness" style="rounded=0;whiteSpace=wrap;html=1;" vertex="1" parent="1">
          <mxGeometry x="270" y="730" width="120" height="60" as="geometry" />
        </mxCell>
        <mxCell id="nXqNh91f3k578FwpFISp-4" value="values" style="rounded=0;whiteSpace=wrap;html=1;" vertex="1" parent="1">
          <mxGeometry x="270" y="840" width="120" height="60" as="geometry" />
        </mxCell>
        <mxCell id="nXqNh91f3k578FwpFISp-62" style="edgeStyle=orthogonalEdgeStyle;rounded=0;orthogonalLoop=1;jettySize=auto;html=1;entryX=0;entryY=0.5;entryDx=0;entryDy=0;" edge="1" parent="1" source="nXqNh91f3k578FwpFISp-9" target="nXqNh91f3k578FwpFISp-26">
          <mxGeometry relative="1" as="geometry" />
        </mxCell>
        <mxCell id="nXqNh91f3k578FwpFISp-63" style="edgeStyle=orthogonalEdgeStyle;rounded=0;orthogonalLoop=1;jettySize=auto;html=1;entryX=0;entryY=0.5;entryDx=0;entryDy=0;" edge="1" parent="1" source="nXqNh91f3k578FwpFISp-9" target="nXqNh91f3k578FwpFISp-25">
          <mxGeometry relative="1" as="geometry" />
        </mxCell>
        <mxCell id="nXqNh91f3k578FwpFISp-69" value="" style="edgeStyle=orthogonalEdgeStyle;rounded=0;orthogonalLoop=1;jettySize=auto;html=1;entryX=0;entryY=0.5;entryDx=0;entryDy=0;" edge="1" parent="1" source="nXqNh91f3k578FwpFISp-9" target="nXqNh91f3k578FwpFISp-68">
          <mxGeometry relative="1" as="geometry" />
        </mxCell>
        <mxCell id="nXqNh91f3k578FwpFISp-9" value="food" style="rounded=0;whiteSpace=wrap;html=1;" vertex="1" parent="1">
          <mxGeometry x="530" y="260" width="120" height="60" as="geometry" />
        </mxCell>
        <mxCell id="nXqNh91f3k578FwpFISp-11" value="" style="rounded=0;whiteSpace=wrap;html=1;" vertex="1" parent="1">
          <mxGeometry x="420" y="760" width="120" height="60" as="geometry" />
        </mxCell>
        <mxCell id="nXqNh91f3k578FwpFISp-12" value="" style="rounded=0;whiteSpace=wrap;html=1;" vertex="1" parent="1">
          <mxGeometry x="420" y="760" width="120" height="60" as="geometry" />
        </mxCell>
        <mxCell id="nXqNh91f3k578FwpFISp-13" value="" style="rounded=0;whiteSpace=wrap;html=1;" vertex="1" parent="1">
          <mxGeometry x="1120" y="230" width="120" height="60" as="geometry" />
        </mxCell>
        <mxCell id="nXqNh91f3k578FwpFISp-14" value="farming" style="rounded=0;whiteSpace=wrap;html=1;" vertex="1" parent="1">
          <mxGeometry x="1170" y="-540" width="120" height="60" as="geometry" />
        </mxCell>
        <mxCell id="nXqNh91f3k578FwpFISp-15" value="breeding" style="rounded=0;whiteSpace=wrap;html=1;" vertex="1" parent="1">
          <mxGeometry x="1170" y="-620" width="120" height="60" as="geometry" />
        </mxCell>
        <mxCell id="nXqNh91f3k578FwpFISp-17" value="harvesting" style="rounded=0;whiteSpace=wrap;html=1;" vertex="1" parent="1">
          <mxGeometry x="1200" y="-700" width="120" height="60" as="geometry" />
        </mxCell>
        <mxCell id="nXqNh91f3k578FwpFISp-18" value="planting" style="rounded=0;whiteSpace=wrap;html=1;" vertex="1" parent="1">
          <mxGeometry x="1200" y="-780" width="120" height="60" as="geometry" />
        </mxCell>
        <mxCell id="nXqNh91f3k578FwpFISp-19" value="breeding" style="rounded=0;whiteSpace=wrap;html=1;" vertex="1" parent="1">
          <mxGeometry x="1200" y="-860" width="120" height="60" as="geometry" />
        </mxCell>
        <mxCell id="nXqNh91f3k578FwpFISp-76" style="edgeStyle=orthogonalEdgeStyle;rounded=0;orthogonalLoop=1;jettySize=auto;html=1;entryX=0;entryY=0.5;entryDx=0;entryDy=0;" edge="1" parent="1" source="nXqNh91f3k578FwpFISp-21" target="nXqNh91f3k578FwpFISp-15">
          <mxGeometry relative="1" as="geometry" />
        </mxCell>
        <mxCell id="nXqNh91f3k578FwpFISp-89" style="edgeStyle=orthogonalEdgeStyle;rounded=0;orthogonalLoop=1;jettySize=auto;html=1;entryX=0;entryY=0.5;entryDx=0;entryDy=0;" edge="1" parent="1" source="nXqNh91f3k578FwpFISp-21" target="nXqNh91f3k578FwpFISp-14">
          <mxGeometry relative="1" as="geometry" />
        </mxCell>
        <mxCell id="nXqNh91f3k578FwpFISp-90" style="edgeStyle=orthogonalEdgeStyle;rounded=0;orthogonalLoop=1;jettySize=auto;html=1;entryX=0;entryY=0.5;entryDx=0;entryDy=0;" edge="1" parent="1" source="nXqNh91f3k578FwpFISp-21" target="nXqNh91f3k578FwpFISp-88">
          <mxGeometry relative="1" as="geometry" />
        </mxCell>
        <mxCell id="nXqNh91f3k578FwpFISp-21" value="meat" style="rounded=0;whiteSpace=wrap;html=1;" vertex="1" parent="1">
          <mxGeometry x="980" y="-590" width="120" height="60" as="geometry" />
        </mxCell>
        <mxCell id="nXqNh91f3k578FwpFISp-22" value="transportation" style="rounded=0;whiteSpace=wrap;html=1;" vertex="1" parent="1">
          <mxGeometry x="530" y="520" width="120" height="60" as="geometry" />
        </mxCell>
        <mxCell id="nXqNh91f3k578FwpFISp-23" value="home" style="rounded=0;whiteSpace=wrap;html=1;" vertex="1" parent="1">
          <mxGeometry x="530" y="430" width="120" height="60" as="geometry" />
        </mxCell>
        <mxCell id="nXqNh91f3k578FwpFISp-65" value="" style="edgeStyle=orthogonalEdgeStyle;rounded=0;orthogonalLoop=1;jettySize=auto;html=1;entryX=0;entryY=0.5;entryDx=0;entryDy=0;" edge="1" parent="1" source="nXqNh91f3k578FwpFISp-24" target="nXqNh91f3k578FwpFISp-64">
          <mxGeometry relative="1" as="geometry" />
        </mxCell>
        <mxCell id="nXqNh91f3k578FwpFISp-67" value="" style="edgeStyle=orthogonalEdgeStyle;rounded=0;orthogonalLoop=1;jettySize=auto;html=1;" edge="1" parent="1" source="nXqNh91f3k578FwpFISp-24" target="nXqNh91f3k578FwpFISp-66">
          <mxGeometry relative="1" as="geometry" />
        </mxCell>
        <mxCell id="nXqNh91f3k578FwpFISp-24" value="clothes" style="rounded=0;whiteSpace=wrap;html=1;" vertex="1" parent="1">
          <mxGeometry x="530" y="350" width="120" height="60" as="geometry" />
        </mxCell>
        <mxCell id="nXqNh91f3k578FwpFISp-91" style="edgeStyle=orthogonalEdgeStyle;rounded=0;orthogonalLoop=1;jettySize=auto;html=1;entryX=0;entryY=0.5;entryDx=0;entryDy=0;" edge="1" parent="1" source="nXqNh91f3k578FwpFISp-25" target="nXqNh91f3k578FwpFISp-87">
          <mxGeometry relative="1" as="geometry" />
        </mxCell>
        <mxCell id="nXqNh91f3k578FwpFISp-92" style="edgeStyle=orthogonalEdgeStyle;rounded=0;orthogonalLoop=1;jettySize=auto;html=1;entryX=0;entryY=0.5;entryDx=0;entryDy=0;" edge="1" parent="1" source="nXqNh91f3k578FwpFISp-25" target="nXqNh91f3k578FwpFISp-86">
          <mxGeometry relative="1" as="geometry" />
        </mxCell>
        <mxCell id="nXqNh91f3k578FwpFISp-25" value="processed food" style="rounded=0;whiteSpace=wrap;html=1;" vertex="1" parent="1">
          <mxGeometry x="760" y="-120" width="120" height="60" as="geometry" />
        </mxCell>
        <mxCell id="nXqNh91f3k578FwpFISp-71" value="" style="edgeStyle=orthogonalEdgeStyle;rounded=0;orthogonalLoop=1;jettySize=auto;html=1;entryX=0;entryY=0.5;entryDx=0;entryDy=0;" edge="1" parent="1" source="nXqNh91f3k578FwpFISp-26" target="nXqNh91f3k578FwpFISp-70">
          <mxGeometry relative="1" as="geometry" />
        </mxCell>
        <mxCell id="nXqNh91f3k578FwpFISp-72" style="edgeStyle=orthogonalEdgeStyle;rounded=0;orthogonalLoop=1;jettySize=auto;html=1;entryX=0;entryY=0.5;entryDx=0;entryDy=0;" edge="1" parent="1" source="nXqNh91f3k578FwpFISp-26" target="nXqNh91f3k578FwpFISp-21">
          <mxGeometry relative="1" as="geometry" />
        </mxCell>
        <mxCell id="nXqNh91f3k578FwpFISp-26" value="raw food" style="rounded=0;whiteSpace=wrap;html=1;" vertex="1" parent="1">
          <mxGeometry x="760" y="-200" width="120" height="60" as="geometry" />
        </mxCell>
        <mxCell id="nXqNh91f3k578FwpFISp-27" value="" style="rounded=0;whiteSpace=wrap;html=1;" vertex="1" parent="1">
          <mxGeometry x="490" y="690" width="120" height="60" as="geometry" />
        </mxCell>
        <mxCell id="nXqNh91f3k578FwpFISp-28" value="secure" style="rounded=0;whiteSpace=wrap;html=1;" vertex="1" parent="1">
          <mxGeometry x="530" y="610" width="120" height="60" as="geometry" />
        </mxCell>
        <mxCell id="nXqNh91f3k578FwpFISp-30" value="&lt;p class=&quot;MsoNormal&quot;&gt;&lt;span style=&quot;mso-spacerun:&#39;yes&#39;;font-family:微软雅黑;mso-ascii-font-family:Arial;&lt;br/&gt;mso-hansi-font-family:Arial;mso-bidi-font-family:&#39;Times New Roman&#39;;font-size:10.5000pt;&lt;br/&gt;mso-font-kerning:1.0000pt;&quot;&gt;吃&lt;/span&gt;&lt;/p&gt;" style="whiteSpace=wrap;html=1;" vertex="1" parent="1">
          <mxGeometry x="-860" y="720" width="120" height="60" as="geometry" />
        </mxCell>
        <mxCell id="nXqNh91f3k578FwpFISp-31" value="喝" style="whiteSpace=wrap;html=1;" vertex="1" parent="1">
          <mxGeometry x="-720" y="720" width="120" height="60" as="geometry" />
        </mxCell>
        <mxCell id="nXqNh91f3k578FwpFISp-32" value="衣" style="whiteSpace=wrap;html=1;" vertex="1" parent="1">
          <mxGeometry x="-580" y="720" width="120" height="60" as="geometry" />
        </mxCell>
        <mxCell id="nXqNh91f3k578FwpFISp-33" value="住" style="whiteSpace=wrap;html=1;" vertex="1" parent="1">
          <mxGeometry x="-440" y="720" width="120" height="60" as="geometry" />
        </mxCell>
        <mxCell id="nXqNh91f3k578FwpFISp-34" value="行" style="whiteSpace=wrap;html=1;" vertex="1" parent="1">
          <mxGeometry x="-300" y="720" width="120" height="60" as="geometry" />
        </mxCell>
        <mxCell id="nXqNh91f3k578FwpFISp-35" value="" style="edgeStyle=orthogonalEdgeStyle;rounded=0;orthogonalLoop=1;jettySize=auto;html=1;" edge="1" parent="1" source="nXqNh91f3k578FwpFISp-36" target="nXqNh91f3k578FwpFISp-30">
          <mxGeometry relative="1" as="geometry" />
        </mxCell>
        <mxCell id="nXqNh91f3k578FwpFISp-36" value="预制菜" style="ellipse;whiteSpace=wrap;html=1;" vertex="1" parent="1">
          <mxGeometry x="-840" y="600" width="80" height="80" as="geometry" />
        </mxCell>
        <mxCell id="nXqNh91f3k578FwpFISp-37" value="" style="edgeStyle=orthogonalEdgeStyle;rounded=0;orthogonalLoop=1;jettySize=auto;html=1;" edge="1" parent="1" source="nXqNh91f3k578FwpFISp-38" target="nXqNh91f3k578FwpFISp-30">
          <mxGeometry relative="1" as="geometry" />
        </mxCell>
        <mxCell id="nXqNh91f3k578FwpFISp-38" value="饭店" style="ellipse;whiteSpace=wrap;html=1;" vertex="1" parent="1">
          <mxGeometry x="-840" y="810" width="80" height="80" as="geometry" />
        </mxCell>
        <mxCell id="nXqNh91f3k578FwpFISp-39" value="" style="edgeStyle=orthogonalEdgeStyle;rounded=0;orthogonalLoop=1;jettySize=auto;html=1;" edge="1" parent="1" source="nXqNh91f3k578FwpFISp-40" target="nXqNh91f3k578FwpFISp-31">
          <mxGeometry relative="1" as="geometry" />
        </mxCell>
        <mxCell id="nXqNh91f3k578FwpFISp-40" value="矿泉水" style="ellipse;whiteSpace=wrap;html=1;" vertex="1" parent="1">
          <mxGeometry x="-700" y="600" width="80" height="80" as="geometry" />
        </mxCell>
        <mxCell id="nXqNh91f3k578FwpFISp-41" value="" style="edgeStyle=orthogonalEdgeStyle;rounded=0;orthogonalLoop=1;jettySize=auto;html=1;" edge="1" parent="1" source="nXqNh91f3k578FwpFISp-42" target="nXqNh91f3k578FwpFISp-31">
          <mxGeometry relative="1" as="geometry" />
        </mxCell>
        <mxCell id="nXqNh91f3k578FwpFISp-42" value="奶茶" style="ellipse;whiteSpace=wrap;html=1;" vertex="1" parent="1">
          <mxGeometry x="-700" y="810" width="80" height="80" as="geometry" />
        </mxCell>
        <mxCell id="nXqNh91f3k578FwpFISp-43" value="" style="edgeStyle=orthogonalEdgeStyle;rounded=0;orthogonalLoop=1;jettySize=auto;html=1;" edge="1" parent="1" source="nXqNh91f3k578FwpFISp-44" target="nXqNh91f3k578FwpFISp-32">
          <mxGeometry relative="1" as="geometry" />
        </mxCell>
        <mxCell id="nXqNh91f3k578FwpFISp-44" value="奢侈服装" style="ellipse;whiteSpace=wrap;html=1;" vertex="1" parent="1">
          <mxGeometry x="-560" y="810" width="80" height="80" as="geometry" />
        </mxCell>
        <mxCell id="nXqNh91f3k578FwpFISp-45" value="" style="edgeStyle=orthogonalEdgeStyle;rounded=0;orthogonalLoop=1;jettySize=auto;html=1;" edge="1" parent="1" source="nXqNh91f3k578FwpFISp-46" target="nXqNh91f3k578FwpFISp-32">
          <mxGeometry relative="1" as="geometry" />
        </mxCell>
        <mxCell id="nXqNh91f3k578FwpFISp-46" value="快时尚" style="ellipse;whiteSpace=wrap;html=1;" vertex="1" parent="1">
          <mxGeometry x="-560" y="600" width="80" height="80" as="geometry" />
        </mxCell>
        <mxCell id="nXqNh91f3k578FwpFISp-47" value="" style="edgeStyle=orthogonalEdgeStyle;rounded=0;orthogonalLoop=1;jettySize=auto;html=1;" edge="1" parent="1" source="nXqNh91f3k578FwpFISp-48" target="nXqNh91f3k578FwpFISp-33">
          <mxGeometry relative="1" as="geometry" />
        </mxCell>
        <mxCell id="nXqNh91f3k578FwpFISp-48" value="租房" style="ellipse;whiteSpace=wrap;html=1;" vertex="1" parent="1">
          <mxGeometry x="-420" y="600" width="80" height="80" as="geometry" />
        </mxCell>
        <mxCell id="nXqNh91f3k578FwpFISp-49" value="" style="edgeStyle=orthogonalEdgeStyle;rounded=0;orthogonalLoop=1;jettySize=auto;html=1;" edge="1" parent="1" source="nXqNh91f3k578FwpFISp-50" target="nXqNh91f3k578FwpFISp-33">
          <mxGeometry relative="1" as="geometry" />
        </mxCell>
        <mxCell id="nXqNh91f3k578FwpFISp-50" value="房产" style="ellipse;whiteSpace=wrap;html=1;" vertex="1" parent="1">
          <mxGeometry x="-420" y="810" width="80" height="80" as="geometry" />
        </mxCell>
        <mxCell id="nXqNh91f3k578FwpFISp-51" value="" style="edgeStyle=orthogonalEdgeStyle;rounded=0;orthogonalLoop=1;jettySize=auto;html=1;" edge="1" parent="1" source="nXqNh91f3k578FwpFISp-52" target="nXqNh91f3k578FwpFISp-34">
          <mxGeometry relative="1" as="geometry" />
        </mxCell>
        <mxCell id="nXqNh91f3k578FwpFISp-52" value="共享单车" style="ellipse;whiteSpace=wrap;html=1;" vertex="1" parent="1">
          <mxGeometry x="-280" y="600" width="80" height="80" as="geometry" />
        </mxCell>
        <mxCell id="nXqNh91f3k578FwpFISp-53" style="edgeStyle=orthogonalEdgeStyle;rounded=0;orthogonalLoop=1;jettySize=auto;html=1;entryX=0.75;entryY=0;entryDx=0;entryDy=0;" edge="1" parent="1" source="nXqNh91f3k578FwpFISp-54" target="nXqNh91f3k578FwpFISp-34">
          <mxGeometry relative="1" as="geometry" />
        </mxCell>
        <mxCell id="nXqNh91f3k578FwpFISp-54" value="网约车/出租车" style="ellipse;whiteSpace=wrap;html=1;" vertex="1" parent="1">
          <mxGeometry x="-190" y="560" width="80" height="80" as="geometry" />
        </mxCell>
        <mxCell id="nXqNh91f3k578FwpFISp-55" value="" style="edgeStyle=orthogonalEdgeStyle;rounded=0;orthogonalLoop=1;jettySize=auto;html=1;" edge="1" parent="1" source="nXqNh91f3k578FwpFISp-56" target="nXqNh91f3k578FwpFISp-34">
          <mxGeometry relative="1" as="geometry" />
        </mxCell>
        <mxCell id="nXqNh91f3k578FwpFISp-56" value="公共交通" style="ellipse;whiteSpace=wrap;html=1;" vertex="1" parent="1">
          <mxGeometry x="-320" y="840" width="80" height="80" as="geometry" />
        </mxCell>
        <mxCell id="nXqNh91f3k578FwpFISp-57" style="edgeStyle=orthogonalEdgeStyle;rounded=0;orthogonalLoop=1;jettySize=auto;html=1;entryX=0.5;entryY=1;entryDx=0;entryDy=0;" edge="1" parent="1" source="nXqNh91f3k578FwpFISp-58" target="nXqNh91f3k578FwpFISp-34">
          <mxGeometry relative="1" as="geometry" />
        </mxCell>
        <mxCell id="nXqNh91f3k578FwpFISp-58" value="汽车" style="ellipse;whiteSpace=wrap;html=1;" vertex="1" parent="1">
          <mxGeometry x="-210" y="850" width="80" height="80" as="geometry" />
        </mxCell>
        <mxCell id="nXqNh91f3k578FwpFISp-64" value="necessary" style="rounded=0;whiteSpace=wrap;html=1;" vertex="1" parent="1">
          <mxGeometry x="800" y="260" width="120" height="60" as="geometry" />
        </mxCell>
        <mxCell id="nXqNh91f3k578FwpFISp-66" value="fashion" style="rounded=0;whiteSpace=wrap;html=1;" vertex="1" parent="1">
          <mxGeometry x="800" y="350" width="120" height="60" as="geometry" />
        </mxCell>
        <mxCell id="nXqNh91f3k578FwpFISp-93" style="edgeStyle=orthogonalEdgeStyle;rounded=0;orthogonalLoop=1;jettySize=auto;html=1;entryX=0;entryY=0.5;entryDx=0;entryDy=0;" edge="1" parent="1" source="nXqNh91f3k578FwpFISp-68" target="nXqNh91f3k578FwpFISp-85">
          <mxGeometry relative="1" as="geometry" />
        </mxCell>
        <mxCell id="nXqNh91f3k578FwpFISp-68" value="cuisine" style="rounded=0;whiteSpace=wrap;html=1;" vertex="1" parent="1">
          <mxGeometry x="760" y="-40" width="120" height="60" as="geometry" />
        </mxCell>
        <mxCell id="nXqNh91f3k578FwpFISp-73" style="edgeStyle=orthogonalEdgeStyle;rounded=0;orthogonalLoop=1;jettySize=auto;html=1;entryX=0;entryY=0.5;entryDx=0;entryDy=0;" edge="1" parent="1" source="nXqNh91f3k578FwpFISp-70" target="nXqNh91f3k578FwpFISp-19">
          <mxGeometry relative="1" as="geometry" />
        </mxCell>
        <mxCell id="nXqNh91f3k578FwpFISp-74" style="edgeStyle=orthogonalEdgeStyle;rounded=0;orthogonalLoop=1;jettySize=auto;html=1;entryX=0;entryY=0.5;entryDx=0;entryDy=0;" edge="1" parent="1" source="nXqNh91f3k578FwpFISp-70" target="nXqNh91f3k578FwpFISp-18">
          <mxGeometry relative="1" as="geometry" />
        </mxCell>
        <mxCell id="nXqNh91f3k578FwpFISp-75" style="edgeStyle=orthogonalEdgeStyle;rounded=0;orthogonalLoop=1;jettySize=auto;html=1;entryX=0;entryY=0.5;entryDx=0;entryDy=0;" edge="1" parent="1" source="nXqNh91f3k578FwpFISp-70" target="nXqNh91f3k578FwpFISp-17">
          <mxGeometry relative="1" as="geometry" />
        </mxCell>
        <mxCell id="nXqNh91f3k578FwpFISp-70" value="vegetation" style="rounded=0;whiteSpace=wrap;html=1;" vertex="1" parent="1">
          <mxGeometry x="980" y="-700" width="120" height="60" as="geometry" />
        </mxCell>
        <mxCell id="nXqNh91f3k578FwpFISp-77" value="" style="rounded=0;whiteSpace=wrap;html=1;" vertex="1" parent="1">
          <mxGeometry x="1130" y="240" width="120" height="60" as="geometry" />
        </mxCell>
        <mxCell id="nXqNh91f3k578FwpFISp-78" value="" style="rounded=0;whiteSpace=wrap;html=1;" vertex="1" parent="1">
          <mxGeometry x="1140" y="250" width="120" height="60" as="geometry" />
        </mxCell>
        <mxCell id="nXqNh91f3k578FwpFISp-79" value="" style="rounded=0;whiteSpace=wrap;html=1;" vertex="1" parent="1">
          <mxGeometry x="1150" y="260" width="120" height="60" as="geometry" />
        </mxCell>
        <mxCell id="nXqNh91f3k578FwpFISp-80" value="" style="rounded=0;whiteSpace=wrap;html=1;" vertex="1" parent="1">
          <mxGeometry x="1160" y="270" width="120" height="60" as="geometry" />
        </mxCell>
        <mxCell id="nXqNh91f3k578FwpFISp-81" value="" style="rounded=0;whiteSpace=wrap;html=1;" vertex="1" parent="1">
          <mxGeometry x="1170" y="280" width="120" height="60" as="geometry" />
        </mxCell>
        <mxCell id="nXqNh91f3k578FwpFISp-83" value="supply chain" style="rounded=0;whiteSpace=wrap;html=1;" vertex="1" parent="1">
          <mxGeometry x="1410" y="300" width="120" height="60" as="geometry" />
        </mxCell>
        <mxCell id="nXqNh91f3k578FwpFISp-84" value="" style="rounded=0;whiteSpace=wrap;html=1;" vertex="1" parent="1">
          <mxGeometry x="2020" y="280" width="120" height="60" as="geometry" />
        </mxCell>
        <mxCell id="nXqNh91f3k578FwpFISp-85" value="restaurant" style="rounded=0;whiteSpace=wrap;html=1;" vertex="1" parent="1">
          <mxGeometry x="1000" y="-40" width="120" height="60" as="geometry" />
        </mxCell>
        <mxCell id="nXqNh91f3k578FwpFISp-86" value="packed food" style="rounded=0;whiteSpace=wrap;html=1;" vertex="1" parent="1">
          <mxGeometry x="1000" y="-170" width="120" height="60" as="geometry" />
        </mxCell>
        <mxCell id="nXqNh91f3k578FwpFISp-87" value="snacks" style="rounded=0;whiteSpace=wrap;html=1;" vertex="1" parent="1">
          <mxGeometry x="1000" y="-250" width="120" height="60" as="geometry" />
        </mxCell>
        <mxCell id="nXqNh91f3k578FwpFISp-88" value="processing" style="rounded=0;whiteSpace=wrap;html=1;" vertex="1" parent="1">
          <mxGeometry x="1170" y="-460" width="120" height="60" as="geometry" />
        </mxCell>
      </root>
    </mxGraphModel>
  </diagram>
</mxfile>
